<svg xmlns="http://www.w3.org/2000/svg" viewBox="0 0 980 962.54"><defs><style>.cls-1{fill:#287fe8;}</style></defs><g id="Calque_2" data-name="Calque 2"><g id="Calque_1-2" data-name="Calque 1"><path class="cls-1" d="M440.35,1.09C269.44,17.24,125.11,115.58,49.88,266.65,15.33,336.16-.2,403.42,0,483.56c.2,77.07,15.74,143.1,50.09,212.61,25.15,50.9,50.09,85.45,90.56,125.93s75,65.42,125.93,90.56c69.71,34.55,135.74,49.88,214.65,49.88,44.36,0,73.39-3.27,113.46-12.88,79.32-19,158-61.53,217.72-118,18.81-17.58,23.3-26.17,23.3-43.54,0-28-19.42-47-47.84-47-13.49.2-24.94,6.34-42.73,22.9C692.6,813.31,626,847.25,552.77,862.17c-20.85,4.09-29.23,4.7-72.57,4.7-45.38-.2-51.11-.61-74.62-5.52-131.86-28.21-236.53-116.53-285.8-241C104,580.66,96.68,543.45,95.45,494.59c-1.43-46.61,1-70.94,10.84-108.76C140,254.17,240.19,149.91,371.85,110.25,410.28,98.6,429.5,96.14,482.24,96.14c45.38.2,51.11.61,74.62,5.52C629,117.2,693.42,150.31,745.14,199c8.79,8.18,19.83,16.56,24.53,18.81a48.11,48.11,0,0,0,49.48-6.34c11.45-9.4,16.56-20.65,16.56-36.59,0-17.17-4.5-26-22.69-43.14C739.83,62.82,650.7,19.68,551.75,5,520.49.48,467.74-1.36,440.35,1.09Z"/><path class="cls-1" d="M752.52,354.35c-3.07,3.27-3.48,9.2-3.48,40.89v37.21H604.51c-136.77,0-145.15.2-153.12,3.88A38.24,38.24,0,0,0,438.1,447c-4.5,6.54-4.91,8.59-4.91,34.55s.41,28,4.91,34.55a38.24,38.24,0,0,0,13.29,10.63c8,3.68,16.35,3.88,153.12,3.88H749V568c0,33.73.41,38,3.68,40.89,2,2,6.13,3.47,9.2,3.47,8,0,212.2-118.37,216.08-125.32,2.66-4.91,2.66-6.13,0-11-4.08-7.15-208.1-125.31-216.49-125.31C758.45,350.67,754.36,352.31,752.52,354.35Z"/></g></g></svg>