<svg xmlns="http://www.w3.org/2000/svg" viewBox="0 0 56.04 64.24"><defs><style>.cls-1{fill:#353535;}.cls-2{fill:#287fe8;}</style></defs><g id="Calque_2" data-name="Calque 2"><g id="_4fN9UxKrq7OgvwCTpOXNj" data-name=" 4fN9UxKrq7OgvwCTpOXNj"><path class="cls-1" d="M49,.68,16.45,61.5a.49.49,0,0,1-.34.25L2.63,64.12,36.88,2.47a.48.48,0,0,1,.32-.24L48.48,0A.46.46,0,0,1,49,.68Z"/><path class="cls-1" d="M39.68,61.61,6.28.86A.46.46,0,0,1,6.76.19l12,2.13a.45.45,0,0,1,.32.23L54.05,64.24,40,61.85A.47.47,0,0,1,39.68,61.61Z"/><path id="_-9xsgVQ1YqNNRMonmbOo0" data-name=" -9xsgVQ1YqNNRMonmbOo0" class="cls-2" d="M27,13.56a4.28,4.28,0,1,1-3.19,3.19A4.29,4.29,0,0,1,27,13.56ZM40.4,42.86,52.32,63.25a2,2,0,0,0,1.73,1,2,2,0,0,0,1.72-3L43.84,40.84l-2-3.47-8-13.73A8.25,8.25,0,0,0,30,9.71V2.83a2.06,2.06,0,0,0-1.5-2A2,2,0,0,0,26,2.73v7a8.25,8.25,0,0,0-3.77,13.93l-8,13.73-2,3.47L.31,61.14a2.05,2.05,0,0,0,.3,2.56,2,2,0,0,0,3.09-.45L15.62,42.86l2-3.48,8-13.72a8.15,8.15,0,0,0,4.66,0l8,13.72Z"/><rect class="cls-2" x="8.26" y="39.85" width="39.24" height="3.77" rx="1.88"/><rect class="cls-2" x="22.96" y="39.85" width="9.84" height="3.77" rx="1.88" transform="translate(-13.85 69.61) rotate(-90)"/></g></g></svg>