<?xml version="1.0" standalone="no"?>
<svg xmlns:xlink="http://www.w3.org/1999/xlink" id="wave" style="transform:rotate(0deg); transition: 0.3s" viewBox="0 0 1440 380" version="1.1" xmlns="http://www.w3.org/2000/svg"><defs><linearGradient id="sw-gradient-0" x1="0" x2="0" y1="1" y2="0"><stop stop-color="rgba(38, 63, 155, 1)" offset="0%"/><stop stop-color="rgba(51.649, 61.709, 98.727, 1)" offset="100%"/></linearGradient></defs><path style="transform:translate(0, 0px); opacity:1" fill="url(#sw-gradient-0)" d="M0,152L40,171C80,190,160,228,240,221.7C320,215,400,165,480,139.3C560,114,640,114,720,152C800,190,880,266,960,247C1040,228,1120,114,1200,88.7C1280,63,1360,127,1440,183.7C1520,241,1600,291,1680,291.3C1760,291,1840,241,1920,196.3C2000,152,2080,114,2160,114C2240,114,2320,152,2400,190C2480,228,2560,266,2640,247C2720,228,2800,152,2880,114C2960,76,3040,76,3120,69.7C3200,63,3280,51,3360,57C3440,63,3520,89,3600,82.3C3680,76,3760,38,3840,25.3C3920,13,4000,25,4080,50.7C4160,76,4240,114,4320,145.7C4400,177,4480,203,4560,209C4640,215,4720,203,4800,183.7C4880,165,4960,139,5040,139.3C5120,139,5200,165,5280,145.7C5360,127,5440,63,5520,82.3C5600,101,5680,203,5720,253.3L5760,304L5760,380L5720,380C5680,380,5600,380,5520,380C5440,380,5360,380,5280,380C5200,380,5120,380,5040,380C4960,380,4880,380,4800,380C4720,380,4640,380,4560,380C4480,380,4400,380,4320,380C4240,380,4160,380,4080,380C4000,380,3920,380,3840,380C3760,380,3680,380,3600,380C3520,380,3440,380,3360,380C3280,380,3200,380,3120,380C3040,380,2960,380,2880,380C2800,380,2720,380,2640,380C2560,380,2480,380,2400,380C2320,380,2240,380,2160,380C2080,380,2000,380,1920,380C1840,380,1760,380,1680,380C1600,380,1520,380,1440,380C1360,380,1280,380,1200,380C1120,380,1040,380,960,380C880,380,800,380,720,380C640,380,560,380,480,380C400,380,320,380,240,380C160,380,80,380,40,380L0,380Z"/></svg>